<svg width="18" height="24" viewBox="0 0 18 24" fill="none" xmlns="http://www.w3.org/2000/svg">
<path fill-rule="evenodd" clip-rule="evenodd" d="M10.7953 2.07234C10.8042 1.99821 10.8088 1.92273 10.8088 1.84615C10.8088 0.826551 9.999 0 8.99999 0C8.00097 0 7.19116 0.826551 7.19116 1.84615C7.19116 1.92273 7.19568 1.99821 7.20463 2.07234C4.0267 2.88949 1.67422 5.82589 1.67422 9.32308V13.9618C1.67422 14.0885 1.64867 14.2138 1.59915 14.3299L0.152125 17.7251C-0.367561 18.9444 0.508012 20.3077 1.81081 20.3077H16.1892C17.492 20.3077 18.3676 18.9444 17.8479 17.7251L16.4008 14.3299C16.3513 14.2138 16.3257 14.0885 16.3257 13.9618V9.32308C16.3257 5.8259 13.9733 2.88949 10.7953 2.07234ZM6.44194 21.6131C6.79511 21.2526 7.36779 21.2526 7.72096 21.6131C7.88891 21.7845 8.08834 21.9205 8.30775 22.0134C8.52725 22.1061 8.76249 22.1538 8.99999 22.1538C9.23749 22.1538 9.47272 22.1061 9.69223 22.0134C9.91164 21.9206 10.1111 21.7845 10.279 21.6131C10.6322 21.2526 11.2049 21.2526 11.558 21.6131C11.9113 21.9736 11.9113 22.5581 11.558 22.9185C11.2221 23.2614 10.8233 23.5334 10.3844 23.7189C9.94546 23.9045 9.47508 24 8.99999 24C8.5249 24 8.05451 23.9045 7.6156 23.7189C7.17669 23.5334 6.77784 23.2614 6.44194 22.9185C6.08877 22.5581 6.08877 21.9736 6.44194 21.6131ZM14.5169 9.32308V13.9618C14.5169 14.3418 14.5936 14.7178 14.7421 15.0664L16.1892 18.4615H1.81081L3.25784 15.0664C3.40639 14.7179 3.48305 14.3418 3.48305 13.9618V9.32308C3.48305 6.21329 5.9531 3.69231 8.99999 3.69231C12.0469 3.69231 14.5169 6.21329 14.5169 9.32308Z" fill="#646262"/>
</svg>
