<svg width="24" height="24" viewBox="0 0 24 24" fill="none" xmlns="http://www.w3.org/2000/svg">
<path d="M12 0C5.37224 0 0 5.37224 0 12C0 18.6278 5.37224 24 12 24C18.6278 24 24 18.6278 24 12C24 5.37224 18.6278 0 12 0ZM12 2.18182C17.4228 2.18182 21.8182 6.5772 21.8182 12C21.8182 17.4228 17.4228 21.8182 12 21.8182C6.5772 21.8182 2.18182 17.4228 2.18182 12C2.18182 6.5772 6.5772 2.18182 12 2.18182ZM12 4.32955C11.3975 4.32955 10.9091 4.81795 10.9091 5.42045V12.0341C10.9091 12.6388 11.3953 13.1282 12 13.125L17.4716 13.0909C18.0741 13.0877 18.5486 12.6025 18.5455 12C18.5423 11.3975 18.0571 10.9059 17.4545 10.9091L13.0909 10.9432V5.42045C13.0909 4.81795 12.6025 4.32955 12 4.32955Z" fill="#646262"/>
</svg>
