<svg width="24" height="24" viewBox="0 0 24 24" fill="none" xmlns="http://www.w3.org/2000/svg">
<path d="M11.9862 1.84961C6.44908 1.84961 1.96042 6.33827 1.96042 11.8754C1.96042 17.4124 6.44908 21.9012 11.9862 21.9012C17.5234 21.9012 22.012 17.4124 22.012 11.8754C22.0119 6.33827 17.5234 1.84961 11.9862 1.84961ZM11.9862 20.8985C7.00286 20.8985 2.96294 16.8588 2.96294 11.8752C2.96294 6.89167 7.00267 2.85194 11.9862 2.85194C16.9698 2.85194 21.0095 6.89167 21.0095 11.8752C21.0095 16.8588 16.9696 20.8985 11.9862 20.8985Z" fill="#646262"/>
<path d="M24 11.8936C24 12.1599 23.8082 12.3756 23.5716 12.3756H19.5736C19.337 12.3756 19.1452 12.1599 19.1452 11.8936C19.1452 11.6274 19.337 11.4116 19.5736 11.4116H23.5716C23.8082 11.4116 24 11.6274 24 11.8936Z" fill="#646262"/>
<path d="M4.85481 11.8755C4.85481 12.1418 4.663 12.3575 4.42638 12.3575H0.428432C0.191807 12.3575 0 12.1418 0 11.8755C0 11.6093 0.191807 11.3936 0.428432 11.3936H4.42638C4.663 11.3936 4.85481 11.6093 4.85481 11.8755Z" fill="#646262"/>
<path d="M11.9862 23.8929C11.72 23.8929 11.5042 23.7011 11.5042 23.4645V19.4665C11.5042 19.2299 11.72 19.0381 11.9862 19.0381C12.2523 19.0381 12.4682 19.2299 12.4682 19.4665V23.4645C12.4682 23.7011 12.2523 23.8929 11.9862 23.8929Z" fill="#646262"/>
<path d="M11.9862 4.85481C11.72 4.85481 11.5042 4.663 11.5042 4.42638V0.428432C11.5042 0.191807 11.72 0 11.9862 0C12.2523 0 12.4682 0.191807 12.4682 0.428432V4.42638C12.4682 4.663 12.2523 4.85481 11.9862 4.85481Z" fill="#646262"/>
</svg>
