<svg width="18" height="10" viewBox="0 0 18 10" fill="none" xmlns="http://www.w3.org/2000/svg">
<path d="M8.96121 9.92583C8.65391 9.91865 8.3602 9.79771 8.13695 9.58642L0.379044 2.13882C0.142294 1.90966 0.00605824 1.59598 0.0001972 1.26654C-0.00566384 0.937105 0.119328 0.618791 0.347777 0.381355C0.576226 0.14392 0.889493 0.00672817 1.21891 -0.000119209C1.54833 -0.00696659 1.86703 0.117083 2.10515 0.34482L9 6.96813L15.8949 0.34482C16.133 0.117083 16.4517 -0.00696659 16.7811 -0.000119209C17.1105 0.00672817 17.4238 0.14392 17.6522 0.381355C17.8807 0.618791 18.0057 0.937105 17.9998 1.26654C17.9939 1.59598 17.8577 1.90966 17.621 2.13882L9.86305 9.58642C9.74294 9.70025 9.60128 9.78892 9.4464 9.84721C9.29153 9.9055 9.12656 9.93222 8.96121 9.92583Z" fill="#FFFCFC"/>
</svg>
