<svg width="30" height="30" viewBox="0 0 30 30" fill="none" xmlns="http://www.w3.org/2000/svg">
<path fill-rule="evenodd" clip-rule="evenodd" d="M0 24.2308V26.5385C0 27.4569 0.364617 28.3373 1.01423 28.9858C1.66269 29.6354 2.54308 30 3.46154 30C8.67692 30 21.3231 30 26.5385 30C27.4569 30 28.3373 29.6354 28.9858 28.9858C29.6354 28.3373 30 27.4569 30 26.5385C30 25.3846 30 24.2308 30 24.2308C30 23.5938 29.4831 23.0769 28.8462 23.0769C28.2092 23.0769 27.6923 23.5938 27.6923 24.2308C27.6923 24.2308 27.6923 25.3846 27.6923 26.5385C27.6923 26.8442 27.5712 27.1385 27.3542 27.3542C27.1385 27.5712 26.8442 27.6923 26.5385 27.6923H3.46154C3.15577 27.6923 2.86154 27.5712 2.64577 27.3542C2.42885 27.1385 2.30769 26.8442 2.30769 26.5385V24.2308C2.30769 23.5938 1.79077 23.0769 1.15385 23.0769C0.516923 23.0769 0 23.5938 0 24.2308ZM13.8462 11.3665V25.3846C13.8462 26.0215 14.3631 26.5385 15 26.5385C15.6369 26.5385 16.1538 26.0215 16.1538 25.3846V11.3746L18.6438 14.4958C19.0408 14.9931 19.7665 15.075 20.265 14.6781C20.7623 14.2812 20.8442 13.5542 20.4473 13.0569L16.8023 8.48654C16.365 7.93846 15.7015 7.61885 15 7.61769C14.2985 7.61769 13.635 7.93615 13.1965 8.48423C11.8535 10.1631 9.48346 13.125 9.48346 13.125C9.08539 13.6223 9.16615 14.3492 9.66346 14.7473C10.1608 15.1454 10.8877 15.0646 11.2858 14.5673L13.8462 11.3665ZM15 3.46154C15.6369 3.46154 16.1538 3.97846 16.1538 4.61538C16.1538 5.25231 15.6369 5.76923 15 5.76923C14.3631 5.76923 13.8462 5.25231 13.8462 4.61538C13.8462 3.97846 14.3631 3.46154 15 3.46154ZM15 0C15.6369 0 16.1538 0.516923 16.1538 1.15385C16.1538 1.79077 15.6369 2.30769 15 2.30769C14.3631 2.30769 13.8462 1.79077 13.8462 1.15385C13.8462 0.516923 14.3631 0 15 0Z" fill="#0568EA"/>
</svg>