<svg width="9" height="24" viewBox="0 0 9 24" fill="none" xmlns="http://www.w3.org/2000/svg">
<path fill-rule="evenodd" clip-rule="evenodd" d="M5.83872 7.72434L8.34571 0.553445C8.38924 0.42724 8.37102 0.286555 8.29508 0.175859C8.22016 0.0662059 8.09562 0 7.96501 0H3.55442C3.3833 0 3.23143 0.109653 3.17269 0.275178L0.023897 9.28634C-0.0206547 9.41254 -0.00242795 9.55323 0.0745216 9.66393C0.149447 9.77358 0.273987 9.83978 0.404591 9.83978H2.95004L1.2632 23.5351C1.23789 23.7369 1.36242 23.9282 1.55379 23.9841C1.74617 24.04 1.94967 23.9448 2.03373 23.7586L8.96326 8.31089C9.02097 8.18261 9.00983 8.03364 8.93592 7.91468C8.86099 7.79676 8.73342 7.72434 8.59571 7.72434L5.83872 7.72434ZM4.88291 7.99952C4.83836 8.12573 4.85659 8.26641 4.93354 8.37711C5.00846 8.48676 5.133 8.55297 5.26361 8.55297H7.96294L2.39605 20.9645L3.81153 9.47879C3.8257 9.36086 3.79027 9.24293 3.71331 9.15396C3.63636 9.06498 3.52499 9.01431 3.40955 9.01431H0.979528L3.84087 0.830721H7.39065L4.88468 8.00162L4.88291 7.99952Z" fill="#646262"/>
</svg>
