<svg width="19" height="18" viewBox="0 0 19 18" fill="none" xmlns="http://www.w3.org/2000/svg">
<path d="M13.5839 7.6458C13.5839 7.81918 13.5796 7.98823 13.5666 8.16161C13.5579 8.25264 13.5492 8.33933 13.5405 8.43036C13.5318 8.53872 13.5752 8.4607 13.5492 8.37834C13.5622 8.41302 13.5318 8.4867 13.5275 8.52571C13.4711 8.86381 13.3929 9.19323 13.2844 9.51832C13.2366 9.6657 13.1802 9.80874 13.1281 9.95178C13.0717 10.1035 13.1498 9.91277 13.1498 9.9041C13.1541 9.93011 13.102 10.0081 13.0934 10.0341C13.0586 10.1122 13.0196 10.1902 12.9805 10.2682C12.8242 10.5716 12.6506 10.8664 12.4509 11.1438C12.4161 11.1915 12.3684 11.2955 12.3163 11.3258C12.325 11.3172 12.4465 11.1654 12.3467 11.2825C12.3206 11.3128 12.2989 11.3432 12.2729 11.3692C12.1643 11.4992 12.0515 11.6249 11.9342 11.7463C11.8214 11.8633 11.7085 11.9717 11.5869 12.08C11.5305 12.1321 11.4741 12.1797 11.4176 12.2274C11.3872 12.2534 11.3612 12.2751 11.3308 12.3011C11.1789 12.4268 11.3916 12.2578 11.3265 12.3054C11.0573 12.5005 10.7838 12.6869 10.4929 12.8472C10.3584 12.9209 10.2238 12.9903 10.0849 13.0553C10.0501 13.0726 10.0154 13.0856 9.98067 13.103C9.83307 13.168 10.0241 13.09 10.0284 13.0813C9.98501 13.1333 9.82005 13.1637 9.75927 13.1853C9.43801 13.3024 9.11242 13.3934 8.77814 13.4584C8.69132 13.4758 8.60449 13.4931 8.51767 13.5061C8.47859 13.5104 8.43952 13.5148 8.40045 13.5234C8.42216 13.5191 8.60883 13.5018 8.45255 13.5148C8.27455 13.5321 8.09222 13.5494 7.91423 13.5538C7.57127 13.5668 7.22831 13.5451 6.88535 13.5148C6.72038 13.4974 6.92876 13.5278 6.93744 13.5234C6.90705 13.5364 6.82457 13.5061 6.78984 13.5018C6.7117 13.4888 6.63355 13.4758 6.55541 13.4584C6.38176 13.4237 6.21245 13.3847 6.04314 13.3371C5.88686 13.2937 5.72623 13.2417 5.57429 13.1853C5.50048 13.1593 5.43102 13.129 5.35722 13.103C5.20528 13.0423 5.39629 13.1247 5.40498 13.1247C5.38327 13.129 5.2704 13.064 5.24869 13.0553C4.95348 12.9209 4.6713 12.7606 4.3978 12.5872C4.26322 12.5005 4.13298 12.4051 4.00275 12.3098C3.9029 12.2361 4.16771 12.4485 4.02011 12.3228C3.98972 12.2968 3.95933 12.2751 3.93329 12.2491C3.85948 12.1884 3.79002 12.1277 3.72056 12.0627C3.48179 11.846 3.26039 11.6162 3.05201 11.3692C3.02596 11.3388 3.00425 11.3085 2.97821 11.2825C2.87836 11.1611 2.99991 11.3172 3.0086 11.3258C2.95216 11.2911 2.89572 11.1741 2.85665 11.1221C2.7568 10.9834 2.66564 10.8404 2.57881 10.693C2.49633 10.5543 2.41818 10.4112 2.34438 10.2682C2.30965 10.1988 2.27492 10.1295 2.24453 10.0601C2.22717 10.0255 2.21414 9.99079 2.19678 9.95611C2.11429 9.77406 2.26624 10.1382 2.19678 9.95178C2.07956 9.64403 1.97537 9.33627 1.89723 9.01552C1.85816 8.85514 1.82343 8.69043 1.79738 8.52571C1.79304 8.4867 1.78436 8.44769 1.78002 8.40868C1.76265 8.28732 1.79738 8.58206 1.7887 8.4607C1.78002 8.361 1.76699 8.26131 1.75831 8.16161C1.73226 7.81052 1.73226 7.45508 1.76265 7.10399C1.76699 7.02596 1.78002 6.94361 1.78436 6.86559C1.80172 6.70954 1.78002 6.89593 1.77567 6.9176C1.78436 6.87859 1.7887 6.83958 1.79304 6.80057C1.81909 6.62719 1.85382 6.45381 1.89723 6.28042C1.97537 5.951 2.08825 5.63458 2.2098 5.31816C2.25321 5.20112 2.11864 5.51755 2.20112 5.33983C2.21848 5.30515 2.23151 5.27048 2.24887 5.2358C2.27926 5.16645 2.31399 5.0971 2.34872 5.02774C2.42687 4.87603 2.50935 4.72433 2.59617 4.57695C2.67432 4.44691 2.7568 4.32121 2.84363 4.19551C2.89138 4.12616 2.94348 4.05681 2.99557 3.98745C3.06503 3.89209 2.88704 4.11749 2.96518 4.0308C2.99557 3.99612 3.02596 3.95711 3.05635 3.92244C3.27341 3.66236 3.51218 3.41529 3.76398 3.1899C3.82041 3.13788 3.87685 3.0902 3.93763 3.04252C3.96802 3.01652 3.9984 2.99484 4.02445 2.96884C4.14601 2.86914 3.98972 2.99051 3.98104 2.99918C4.0505 2.88648 4.28927 2.77812 4.3978 2.70443C4.67564 2.52238 4.97085 2.362 5.27474 2.2233C5.30947 2.20596 5.3442 2.19295 5.37893 2.17562C5.48312 2.1236 5.2183 2.2363 5.33117 2.19729C5.41366 2.16695 5.4918 2.13227 5.57429 2.10193C5.73925 2.04125 5.90422 1.98923 6.07353 1.94155C6.22548 1.89821 6.37742 1.86353 6.52936 1.83319C6.60751 1.81585 6.68565 1.80285 6.75945 1.78984C6.80721 1.78117 6.85496 1.77684 6.90705 1.76817C7.01993 1.75083 6.71604 1.78984 6.88101 1.7725C7.23265 1.73783 7.58429 1.72049 7.94028 1.73349C8.10959 1.74216 8.2789 1.75517 8.4482 1.7725C8.55674 1.78551 8.47859 1.73783 8.39611 1.76384C8.41782 1.7595 8.5003 1.78117 8.51332 1.78117C8.60883 1.79851 8.70868 1.81585 8.80419 1.83319C9.12978 1.89821 9.4467 1.98923 9.75493 2.10193C9.83741 2.13227 9.91555 2.16695 9.99804 2.19729C10.1066 2.2363 9.84609 2.12794 9.95028 2.17562C9.98501 2.19295 10.0197 2.20596 10.0545 2.2233C10.2108 2.29265 10.3627 2.37067 10.5146 2.45736C10.6579 2.53538 10.7925 2.61774 10.9314 2.70877C11.0486 2.78679 11.27 2.88648 11.3482 3.00351C11.2787 2.89948 11.2396 2.91682 11.3048 2.97317C11.3351 2.99918 11.3655 3.02085 11.3916 3.04686C11.448 3.09454 11.5088 3.14655 11.5652 3.19423C11.6998 3.31127 11.8301 3.43697 11.9516 3.567C12.0645 3.68404 12.1687 3.80107 12.2729 3.92677C12.2989 3.95711 12.3206 3.98745 12.3467 4.01346C12.4031 4.07848 12.4205 4.0438 12.3163 3.97012C12.3814 4.01346 12.4422 4.13483 12.4856 4.19985C12.6723 4.46425 12.8372 4.74166 12.9848 5.02774C13.0196 5.0971 13.0543 5.16645 13.0847 5.2358C13.1064 5.27915 13.1238 5.32249 13.1455 5.36584C13.1976 5.46987 13.0847 5.20979 13.1238 5.31816C13.1845 5.47853 13.2496 5.63891 13.3017 5.80796C13.4059 6.13305 13.4841 6.46681 13.5405 6.8049C13.5449 6.84391 13.5492 6.88293 13.5579 6.92194C13.5535 6.90026 13.5318 6.71388 13.5492 6.86992C13.5579 6.94794 13.5666 7.0303 13.5709 7.10832C13.5796 7.28604 13.5839 7.46809 13.5839 7.6458C13.5839 8.10093 13.9833 8.53438 14.4522 8.51271C14.921 8.49104 15.3204 8.13127 15.3204 7.6458C15.3118 6.0897 14.8429 4.5206 13.9269 3.25492C12.9979 1.96322 11.7389 0.996623 10.2411 0.446136C7.28909 -0.641833 3.78134 0.311766 1.7887 2.74344C0.76416 3.99612 0.152041 5.4872 0.0218025 7.10399C-0.099753 8.65575 0.290961 10.2595 1.0941 11.5902C1.87118 12.8776 3.04767 13.9526 4.41951 14.5767C5.93461 15.2616 7.59732 15.461 9.22963 15.1359C12.2555 14.529 14.7517 11.9543 15.2119 8.89849C15.2727 8.48237 15.3161 8.07059 15.3204 7.65014C15.3204 7.19501 14.921 6.76156 14.4522 6.78323C13.9833 6.80057 13.5883 7.16034 13.5839 7.6458Z" fill="#FFFDFD"/>
<path d="M11.9344 12.9341C13.3409 14.3385 14.7519 15.7472 16.1584 17.1516C16.3581 17.351 16.5578 17.5504 16.7575 17.7498C17.0788 18.0705 17.6692 18.0966 17.9861 17.7498C18.303 17.403 18.3291 16.8655 17.9861 16.5231C16.5795 15.1187 15.1686 13.71 13.7621 12.3056C13.5624 12.1062 13.3627 11.9068 13.163 11.7074C12.8417 11.3867 12.2513 11.3607 11.9344 11.7074C11.6175 12.0542 11.5914 12.5874 11.9344 12.9341Z" fill="#FFFDFD"/>
</svg>
