<svg width="26" height="23" viewBox="0 0 26 23" fill="none" xmlns="http://www.w3.org/2000/svg">
<path d="M6.21895 1.70623C7.75029 1.70623 8.99608 2.95202 8.99608 4.4836C8.99608 6.01518 7.75029 7.26097 6.21895 7.26097C4.68737 7.26097 3.44158 6.01518 3.44158 4.4836C3.44158 2.95202 4.68737 1.70623 6.21895 1.70623ZM6.21895 1C4.29494 1 2.73535 2.55959 2.73535 4.4836C2.73535 6.40761 4.29494 7.9672 6.21895 7.9672C8.14272 7.9672 9.70232 6.40761 9.70232 4.4836C9.70232 2.55959 8.14272 1 6.21895 1Z" fill="#646262" stroke="#646262"/>
<path d="M6.21904 9.75018C8.70709 9.75018 10.7314 11.7747 10.7314 14.2628V21.2937H1.70623V14.2628C1.70623 11.7747 3.73076 9.75018 6.21904 9.75018ZM6.21904 9.04395C3.33645 9.04395 1 11.3806 1 14.2628V22H11.4376V14.2628C11.4379 11.3806 9.10117 9.04395 6.21904 9.04395Z" fill="#646262" stroke="#646262"/>
<path d="M19.4013 1.70623C20.9329 1.70623 22.1792 2.95202 22.1792 4.4836C22.1792 6.01518 20.9331 7.26097 19.4013 7.26097C17.8698 7.26097 16.6242 6.01518 16.6242 4.4836C16.6244 2.95202 17.8705 1.70623 19.4013 1.70623ZM19.4013 1C17.4776 1 15.918 2.55959 15.918 4.4836C15.918 6.40761 17.4776 7.9672 19.4013 7.9672C21.3256 7.9672 22.8854 6.40761 22.8854 4.4836C22.8854 2.55959 21.3256 1 19.4013 1Z" fill="#646262" stroke="#646262"/>
<path d="M19.4009 9.75018C21.8892 9.75018 23.9138 11.7747 23.9138 14.2628V21.2937H14.8886V14.2628C14.8886 11.7747 16.9129 9.75018 19.4009 9.75018ZM19.4009 9.04395C16.5186 9.04395 14.1824 11.3806 14.1824 14.2628V22H24.62V14.2628C24.62 11.3806 22.284 9.04395 19.4009 9.04395Z" fill="#646262" stroke="#646262"/>
</svg>
