<svg width="20" height="25" viewBox="0 0 20 25" fill="none" xmlns="http://www.w3.org/2000/svg">
<path d="M19.4872 5.5341C19.4607 5.42965 19.4064 5.33468 19.3303 5.25964C19.2542 5.1846 19.1592 5.13242 19.0558 5.10883C15.3683 4.26555 12.7864 2.79404 10.4224 0.188118C10.3686 0.128796 10.3032 0.0814602 10.2305 0.0490862C10.1578 0.0167122 10.0793 0 10 0C9.92065 0 9.84217 0.0167122 9.76947 0.0490862C9.69677 0.0814602 9.63144 0.128796 9.57757 0.188118C7.21383 2.79377 4.632 4.26528 0.944213 5.10748C0.840829 5.13107 0.745845 5.18326 0.669727 5.2583C0.593608 5.33333 0.539308 5.42831 0.51281 5.53275C0.0001427 7.58024 -0.129635 9.70766 0.130249 11.804C0.371778 13.8294 0.950608 15.7981 1.84187 17.6255C3.66359 21.3621 6.58045 24.043 9.84555 24.9782C9.94744 25.0073 10.0552 25.0073 10.1571 24.9782C13.4209 24.043 16.3383 21.3632 18.1594 17.6255C19.0501 15.7985 19.6285 13.8302 19.8698 11.8053C20.1296 9.709 19.9999 7.58159 19.4872 5.5341ZM14.7671 10.6645L9.17812 16.3548C9.00721 16.5288 8.77544 16.6265 8.53378 16.6265C8.29212 16.6265 8.06036 16.5288 7.88945 16.3548L5.23291 13.6502C5.14643 13.5645 5.07754 13.4622 5.03024 13.3491C4.98294 13.236 4.95818 13.1145 4.95738 12.9917C4.95659 12.8688 4.97978 12.747 5.02561 12.6333C5.07144 12.5196 5.139 12.4163 5.22436 12.3294C5.30972 12.2426 5.41118 12.1738 5.52285 12.1272C5.63452 12.0806 5.75418 12.057 5.87487 12.0579C5.99555 12.0587 6.11487 12.084 6.22589 12.1322C6.33691 12.1804 6.43742 12.2506 6.52158 12.3387L8.53391 14.3876L13.4784 9.35238C13.6493 9.17839 13.8811 9.08064 14.1228 9.08064C14.3644 9.08064 14.5962 9.17839 14.7671 9.35238C14.938 9.52638 15.034 9.76237 15.034 10.0084C15.034 10.2545 14.938 10.4905 14.7671 10.6645Z" fill="#0568EA"/>
</svg>